<?xml version="1.0" encoding="utf-8"?>
<!-- Generator: Adobe Illustrator 26.4.1, SVG Export Plug-In . SVG Version: 6.00 Build 0)  -->
<svg version="1.1" id="圖層_1" xmlns="http://www.w3.org/2000/svg" xmlns:xlink="http://www.w3.org/1999/xlink" x="0px" y="0px"
	 viewBox="0 0 78.7 78.7" style="enable-background:new 0 0 78.7 78.7;" xml:space="preserve">
<style type="text/css">
	.st0{fill-rule:evenodd;clip-rule:evenodd;fill:#1877F2;}
	.st1{fill:#FFFFFF;}
</style>
<g>
	<path class="st0" d="M78.7,39.3c0,21.7-17.6,39.3-39.3,39.3S0,61.1,0,39.3S17.6,0,39.3,0C61.1,0,78.7,17.6,78.7,39.3z"/>
	<path class="st1" d="M60.3,21.4H18.4c-0.9,0-1.7,0.8-1.7,1.7v28c0,0.9,0.8,1.7,1.7,1.7h10.2v8.5l10.2-8.5h21.4
		c0.9,0,1.7-0.8,1.7-1.7v-28C61.9,22.2,61.2,21.4,60.3,21.4z M46.9,43.5H25.3v-2h21.6V43.5z M53.4,37.8H25.3v-2h28.1V37.8z
		 M53.4,31.7H25.3v-2h28.1V31.7z"/>
</g>
</svg>
